HIERARCHY
ROOT Hips
{
  OFFSET 0.0273292 -0.436096 0.279869
  CHANNELS 6 Xposition Yposition Zposition Zrotation Xrotation Yrotation
  JOINT LHipJoint
  {
    OFFSET 0 0 0
    CHANNELS 6 Xposition Yposition Zposition Zrotation Xrotation Yrotation
    JOINT LeftUpLeg
    {
      OFFSET 1.36306 -1.79463 0
      CHANNELS 6 Xposition Yposition Zposition Zrotation Xrotation Yrotation
      JOINT LeftLeg
      {
        OFFSET 2.44807 -6.72613 0.000295034
        CHANNELS 6 Xposition Yposition Zposition Zrotation Xrotation Yrotation
        JOINT LeftFoot
        {
          OFFSET 2.5622 -7.03959 3.59965e-05
          CHANNELS 6 Xposition Yposition Zposition Zrotation Xrotation Yrotation
          JOINT LeftToeBase
          {
            OFFSET 0.15764 -0.43311 2.32255
            CHANNELS 6 Xposition Yposition Zposition Zrotation Xrotation Yrotation
            End Site
            {
              OFFSET 0 0 0
            }
          }
        }
      }
    }
  }
  JOINT RHipJoint
  {
    OFFSET 0 0 0
    CHANNELS 6 Xposition Yposition Zposition Zrotation Xrotation Yrotation
    JOINT RightUpLeg
    {
      OFFSET -1.30552 -1.79463 0
      CHANNELS 6 Xposition Yposition Zposition Zrotation Xrotation Yrotation
      JOINT RightLeg
      {
        OFFSET -2.54234 -6.98562 -0.000396375
        CHANNELS 6 Xposition Yposition Zposition Zrotation Xrotation Yrotation
        JOINT RightFoot
        {
          OFFSET -2.56826 -7.05623 -4.47982e-05
          CHANNELS 6 Xposition Yposition Zposition Zrotation Xrotation Yrotation
          JOINT RightToeBase
          {
            OFFSET -0.16473 -0.45259 2.36315
            CHANNELS 6 Xposition Yposition Zposition Zrotation Xrotation Yrotation
            End Site
            {
              OFFSET 0 0 0
            }
          }
        }
      }
    }
  }
  JOINT LowerBack
  {
    OFFSET 0 0 0
    CHANNELS 6 Xposition Yposition Zposition Zrotation Xrotation Yrotation
    JOINT Spine
    {
      OFFSET 0.0282699 2.03559 0
      CHANNELS 6 Xposition Yposition Zposition Zrotation Xrotation Yrotation
      JOINT Spine1
      {
        OFFSET 0.05672 2.04885 -0.04275
        CHANNELS 6 Xposition Yposition Zposition Zrotation Xrotation Yrotation
        JOINT Neck
        {
          OFFSET 0 0 0
          CHANNELS 6 Xposition Yposition Zposition Zrotation Xrotation Yrotation
          JOINT Neck1
          {
            OFFSET -0.05417 1.74624 0.17202
            CHANNELS 6 Xposition Yposition Zposition Zrotation Xrotation Yrotation
            JOINT Head
            {
              OFFSET 0.10407 1.76136 -0.12397
              CHANNELS 6 Xposition Yposition Zposition Zrotation Xrotation Yrotation
              End Site
              {
                OFFSET 0 0 0
              }
            }
          }
        }
        JOINT LeftShoulder
        {
          OFFSET 0 0 0
          CHANNELS 6 Xposition Yposition Zposition Zrotation Xrotation Yrotation
          JOINT LeftArm
          {
            OFFSET 3.36241 1.20089 -0.311211
            CHANNELS 6 Xposition Yposition Zposition Zrotation Xrotation Yrotation
            JOINT LeftForeArm
            {
              OFFSET 4.983 0.000197398 0.000166057
              CHANNELS 6 Xposition Yposition Zposition Zrotation Xrotation Yrotation
              JOINT LeftHand
              {
                OFFSET 3.48356 0 1.87849e-05
                CHANNELS 6 Xposition Yposition Zposition Zrotation Xrotation Yrotation
                JOINT LeftFingerBase
                {
                  OFFSET 0 0 0
                  CHANNELS 6 Xposition Yposition Zposition Zrotation Xrotation Yrotation
                  JOINT LeftHandIndex1
                  {
                    OFFSET 0.71526 0 0
                    CHANNELS 6 Xposition Yposition Zposition Zrotation Xrotation Yrotation
                    End Site
                    {
                      OFFSET 0 0 0
                    }
                  }
                }
                JOINT LThumb
                {
                  OFFSET 0 0 0
                  CHANNELS 6 Xposition Yposition Zposition Zrotation Xrotation Yrotation
                  End Site
                  {
                    OFFSET 0 0 0
                  }
                }
              }
            }
          }
        }
        JOINT RightShoulder
        {
          OFFSET 0 0 0
          CHANNELS 6 Xposition Yposition Zposition Zrotation Xrotation Yrotation
          JOINT RightArm
          {
            OFFSET -3.1366 1.37405 -0.404651
            CHANNELS 6 Xposition Yposition Zposition Zrotation Xrotation Yrotation
            JOINT RightForeArm
            {
              OFFSET -5.2419 -5.8808e-05 -0.000165864
              CHANNELS 6 Xposition Yposition Zposition Zrotation Xrotation Yrotation
              JOINT RightHand
              {
                OFFSET -3.44417 0 -2.00002e-05
                CHANNELS 6 Xposition Yposition Zposition Zrotation Xrotation Yrotation
                JOINT RightFingerBase
                {
                  OFFSET 0 0 0
                  CHANNELS 6 Xposition Yposition Zposition Zrotation Xrotation Yrotation
                  JOINT RightHandIndex1
                  {
                    OFFSET -0.62253 0 0
                    CHANNELS 6 Xposition Yposition Zposition Zrotation Xrotation Yrotation
                    End Site
                    {
                      OFFSET 0 0 0
                    }
                  }
                }
                JOINT RThumb
                {
                  OFFSET 0 0 0
                  CHANNELS 6 Xposition Yposition Zposition Zrotation Xrotation Yrotation
                  End Site
                  {
                    OFFSET 0 0 0
                  }
                }
              }
            }
          }
        }
      }
    }
  }
}
MOTION
Frames:	4
Frame Time:	0.00833333
0.0901615 -1.29889 0.129168 2.87382 -11.5264 -11.0332 0 0 0 1.19271e-15 3.18055e-15 -1.59028e-15 1.36306 -1.79463 3.15064e-08 -142.835 -84.2391 -134.386 2.4479 -6.72621 -9.56673e-05 -125.811 52.5807 148.162 2.5622 -7.03959 -1.0564e-06 -13.1472 -32.4177 -18.9037 0.15764 -0.43311 2.32255 -3.18055e-15 0 -1.59028e-15 0 0 0 1.19271e-15 3.18055e-15 -1.59028e-15 -1.30552 -1.79463 8.43998e-08 -9.77345 30.0937 16.7166 -2.54226 -6.98565 -0.000402366 120.938 57.1798 -142.596 -2.56826 -7.05622 2.35751e-05 8.69287 -17.1329 11.9761 -0.16473 -0.45259 2.36315 9.54166e-15 3.18055e-15 -1.59028e-15 0 0 0 1.19271e-15 3.18055e-15 -1.59028e-15 0.0282702 2.03559 -6.44439e-07 -5.40066 7.89246 10.0966 0.05672 2.04885 -0.04275 1.2424e-17 0 -3.97569e-16 0 0 0 -1.98785e-16 0 -1.98785e-16 -0.05417 1.74624 0.17202 3.61226 5.83361 3.53625 0.10407 1.76136 -0.12397 8.07563e-16 7.95139e-16 -3.97569e-16 0 0 0 -1.98785e-16 0 -1.98785e-16 3.3624 1.20089 -0.31121 -75.4705 -0.981995 37.8797 4.983 0.000148081 -8.96757e-05 -3.18643 -2.33418 -31.4515 3.48356 -1.1134e-05 1.63992e-05 -7.95919e-05 1.59028e-15 0.000420033 0 0 0 1.61513e-15 0 -0 0.71526 0 4.44089e-16 1.59028e-15 7.95139e-16 3.97569e-16 0 0 0 1.61513e-15 0 -0 0 0 0 -1.98785e-16 0 -1.98785e-16 -3.1366 1.37405 -0.40465 84.2052 0.298352 48.6673 -5.2419 0.000178194 -7.87038e-05 1.79607 -3.84249 50.1456 -3.44417 -9.82588e-07 -7.54262e-06 0.144025 -1.19321 13.7722 0 0 0 1.10348e-32 1.98785e-16 -3.18055e-15 -0.62253 0 2.22045e-16 -2.20695e-32 3.97569e-16 3.18055e-15 0 0 0 1.10348e-32 1.98785e-16 -3.18055e-15 
0.112898 -1.25118 0.132141 2.81807 -11.508 -10.8003 0 0 0 0 0 -4.77083e-15 1.36306 -1.79463 3.15064e-08 -86.0439 -85.2633 -77.4913 2.4479 -6.72621 -9.56673e-05 -124.821 53.6154 147.236 2.5622 -7.03959 -1.0564e-06 -11.9777 -32.7057 -18.2352 0.15764 -0.43311 2.32255 -5.96354e-16 3.18055e-15 3.97569e-15 0 0 0 0 0 -4.77083e-15 -1.30552 -1.79463 8.43998e-08 -10.7707 28.7339 17.2378 -2.54226 -6.98565 -0.000402366 122.01 56.3031 -143.853 -2.56826 -7.05622 2.35751e-05 9.66177 -18.7156 13.3889 -0.16473 -0.45259 2.36315 -4.41391e-32 3.18055e-15 7.95139e-16 0 0 0 0 0 -4.77083e-15 0.0282702 2.03559 -6.44439e-07 -5.25367 7.89775 9.87585 0.05672 2.04885 -0.04275 -9.93923e-17 7.95139e-16 5.96354e-16 0 0 0 -1.98785e-16 7.95139e-16 5.96354e-16 -0.05417 1.74624 0.17202 3.59125 5.85215 3.69676 0.10407 1.76136 -0.12397 -7.57867e-16 3.97569e-16 -7.95139e-16 0 0 0 -1.98785e-16 7.95139e-16 5.96354e-16 3.3624 1.20089 -0.31121 -75.5265 -0.859335 37.6599 4.983 0.000148081 -8.96757e-05 -3.00363 -1.85941 -26.277 3.48356 -1.1134e-05 1.63992e-05 -2.01123e-05 -0.0131747 -0.150225 0 0 0 -9.93923e-16 -7.95139e-16 -1.59028e-15 0.71526 -8.88178e-16 4.44089e-16 -1.09332e-15 3.97569e-16 -0 0 0 0 -9.93923e-16 -7.95139e-16 -1.59028e-15 0 0 0 -1.98785e-16 7.95139e-16 5.96354e-16 -3.1366 1.37405 -0.40465 84.1184 0.176108 48.4184 -5.2419 0.000178194 -7.87038e-05 1.93335 -3.86006 52.6463 -3.44417 -9.82588e-07 -7.54262e-06 0.140833 -1.18045 13.6216 0 0 0 -9.93129e-32 -5.96354e-16 -9.54166e-15 -0.62253 8.88178e-16 4.44089e-16 -6.62086e-32 -5.96354e-16 -6.36111e-15 0 0 0 -9.93129e-32 -5.96354e-16 -9.54166e-15 
0.131306 -1.13408 0.133315 2.68143 -11.462 -10.2327 0 0 0 -0 0 1.59028e-15 1.36306 -1.79463 3.15064e-08 -43.7094 -79.9279 -35.3844 2.4479 -6.72621 -9.56673e-05 -122.758 55.5971 145.234 2.5622 -7.03959 -1.0564e-06 -9.84839 -33.0888 -16.8086 0.15764 -0.43311 2.32255 -4.57205e-15 -1.59028e-15 7.95139e-16 0 0 0 -0 0 1.59028e-15 -1.30552 -1.79463 8.43998e-08 -11.5516 25.5881 17.6156 -2.54226 -6.98565 -0.000402366 123.031 55.3995 -145.092 -2.56826 -7.05622 2.35751e-05 10.3522 -19.6385 14.4813 -0.16473 -0.45259 2.36315 -1.76556e-31 -3.18055e-15 -3.18055e-15 0 0 0 -0 0 1.59028e-15 0.0282702 2.03559 -6.44439e-07 -4.89659 7.91011 9.33965 0.05672 2.04885 -0.04275 -1.37935e-33 3.97569e-16 1.98785e-16 0 0 0 -7.45443e-17 3.97569e-16 1.98785e-16 -0.05417 1.74624 0.17202 3.57085 5.87064 3.85728 0.10407 1.76136 -0.12397 4.22417e-16 -3.97569e-16 -0 0 0 0 -7.45443e-17 3.97569e-16 1.98785e-16 3.3624 1.20089 -0.31121 -75.6615 -0.567198 37.0405 4.983 0.000148081 -8.96757e-05 -2.84695 -1.37747 -20.8941 3.48356 -1.1134e-05 1.63992e-05 -0.000112764 -0.0451717 -0.516072 0 0 0 4.96962e-16 1.19271e-15 -0 0.71526 0 0 3.97569e-16 -1.19271e-15 -4.77083e-15 0 0 0 4.96962e-16 1.19271e-15 -0 0 0 0 -7.45443e-17 3.97569e-16 1.98785e-16 -3.1366 1.37405 -0.40465 83.9025 -0.118666 47.7515 -5.2419 0.000178194 -7.87038e-05 2.02402 -3.79139 55.1504 -3.44417 -9.82588e-07 -7.54262e-06 0.133313 -1.14937 13.2558 0 0 0 3.97569e-16 -5.96354e-16 6.36111e-15 -0.62253 -4.44089e-16 -4.44089e-16 7.95139e-16 -1.98785e-16 6.36111e-15 0 0 0 3.97569e-16 -5.96354e-16 6.36111e-15 
0.14935 -0.986677 0.133834 2.50999 -11.4023 -9.52687 0 0 0 0 1.59028e-15 -0 1.36306 -1.79463 3.15064e-08 -32.5709 -72.6538 -24.7249 2.4479 -6.72621 -9.56673e-05 -120.18 57.728 142.697 2.5622 -7.03959 -1.0564e-06 -7.68017 -33.613 -15.419 0.15764 -0.43311 2.32255 1.963e-15 -7.95139e-16 -1.98785e-16 0 0 0 0 1.59028e-15 -0 -1.30552 -1.79463 8.43998e-08 -11.8974 21.7989 17.9857 -2.54226 -6.98565 -0.000402366 124.048 54.4291 -146.333 -2.56826 -7.05622 2.35751e-05 10.8772 -20.0573 15.3498 -0.16473 -0.45259 2.36315 6.36111e-15 0 5.56597e-15 0 0 0 0 1.59028e-15 -0 0.0282702 2.03559 -6.44439e-07 -4.45535 7.92443 8.67724 0.05672 2.04885 -0.04275 -4.96962e-17 1.19271e-15 3.97569e-16 0 0 0 -4.96962e-17 7.95139e-16 -0 -0.05417 1.74624 0.17202 3.55026 5.88908 4.0178 0.10407 1.76136 -0.12397 -5.96354e-16 0 3.97569e-16 0 0 0 -4.96962e-17 7.95139e-16 -0 3.3624 1.20089 -0.31121 -75.8256 -0.218913 36.0809 4.983 0.000148081 -8.96757e-05 -2.72799 -0.925712 -15.9341 3.48356 -1.1134e-05 1.63992e-05 -0.000675159 -0.084696 -0.967993 0 0 0 -2.18663e-15 1.98785e-16 -0 0.71526 -8.88178e-16 0 -3.97569e-16 1.98785e-16 -3.18055e-15 0 0 0 -2.18663e-15 1.98785e-16 -0 0 0 0 -4.96962e-17 7.95139e-16 -0 -3.1366 1.37405 -0.40465 83.6248 -0.477768 46.7857 -5.2419 0.000178194 -7.87038e-05 2.09231 -3.69712 57.656 -3.44417 -9.82588e-07 -7.54262e-06 0.124467 -1.11083 12.8039 0 0 0 -3.97569e-16 5.96354e-16 -6.36111e-15 -0.62253 0 2.22045e-16 3.97569e-16 -3.97569e-16 -3.18055e-15 0 0 0 -3.97569e-16 5.96354e-16 -6.36111e-15 
